{
.appVersion = "3151";
.formatVersion = 3;
customParameters = (
{
name = vendorID;
value = GOOG;
},
{
name = panose;
value = (
2,
2,
9,
0,
0,
0,
0,
0,
0,
0
);
},
{
name = unicodeRanges;
value = (
0,
1,
7,
29,
36,
42,
43,
44,
45,
48,
49,
50,
51,
52,
54,
55,
57,
59,
61,
65,
66,
68
);
},
{
name = codePageRanges;
value = (
"1252",
"1250",
"1251",
"1258",
"932",
"936",
"bit 29",
"bit 30"
);
},
{
name = fsType;
value = (
);
},
{
name = ROS;
value = "Adobe-Identity-0";
}
);
date = "2017-05-01 11:36:35 +0000";
familyName = "Yaku Han MP s";
featurePrefixes = (
{
automatic = 1;
code = "languagesystem DFLT dflt;
";
name = Languagesystems;
}
);
features = (
{
automatic = 1;
code = "feature vert;
feature vrt2;
";
tag = aalt;
},
{
code = "sub blacklenticularbracketleft by blacklenticularbracketleft.vert;
sub blacklenticularbracketright by blacklenticularbracketright.vert;
sub cornerbracketleft by cornerbracketleft.vert;
sub cornerbracketright by cornerbracketright.vert;
sub dblanglebracketleft by dblanglebracketleft.vert;
sub dblanglebracketright by dblanglebracketright.vert;
sub tortoiseshellbracketleft by tortoiseshellbracketleft.vert;
sub tortoiseshellbracketright by tortoiseshellbracketright.vert;
sub whitecornerbracketleft by whitecornerbracketleft.vert;
sub whitecornerbracketright by whitecornerbracketright.vert;
sub whitelenticularbracketleft by whitelenticularbracketleft.vert;
sub whitelenticularbracketright by whitelenticularbracketright.vert;
sub braceleft.full by braceleft.full.vert;
sub braceright.full by braceright.full.vert;
sub bracketleft.full by bracketleft.full.vert;
sub bracketright.full by bracketright.full.vert;
sub parenleft.full by parenleft.full.vert;
sub parenright.full by parenright.full.vert;
sub angleLeft by anglebracketleft.vert;
sub angleRight by anglebracketright.vert;";
tag = vert;
},
{
automatic = 1;
code = "sub blacklenticularbracketleft by blacklenticularbracketleft.vert;
sub blacklenticularbracketright by blacklenticularbracketright.vert;

glyphs = (
{
glyphname = .notdef;
layers = (
{
hints = (
{
horizontal = 1;
place = (-120, 50);
place = (-120, 50);
type = Stem;
},
{
horizontal = 1;
place = (830, 50);
place = (830, 50);
type = Stem;
},
{
place = (100, 50);
place = (100, 50);
type = Stem;
},
{
place = (850, 50);
place = (850, 50);
type = Stem;
},
{
horizontal = 1;
place = (789, 91);
place = (789, 91);
type = Stem;
}
);
layerId = m01;
shapes = (
{
closed = 1;
nodes = (
(100,-120,l),
(900,-120,l),
(900,880,l),
(100,880,l)
);
},
{
closed = 1;
nodes = (
(500,421,l),
(182,830,l),
(818,830,l)
);
},
{
closed = 1;
nodes = (
(532,380,l),
(850,789,l),
(850,-29,l)
);
},
{
closed = 1;
nodes = (
(182,-70,l),
(500,339,l),
(818,-70,l)
);
},
{
closed = 1;
nodes = (
(150,789,l),
(468,380,l),
(150,-29,l)
);
}
);
vertWidth = 1000;
width = 1000;
}
);
note = ".notdef";
},
{
glyphname = angleLeft;
lastChange = "2023-08-28 00:55:48 +0000";
layers = (
{
hints = (
{
horizontal = 1;
place = (-93, 946);
place = (-93, 946);
type = Stem;
},
{
place = (529, 446);
place = (529, 446);
type = Stem;
}
);
layerId = m01;
shapes = (
{
closed = 1;
nodes = (
(646,827,l),
(616,853,l),
(200,380,l),
(616,-93,l),
(646,-67,l),
(253,380,l)
);
}
);
vertWidth = 1000;
width = 671;
}
);
note = cid01404;
unicode = (9001,12296);
},
{
glyphname = angleRight;
lastChange = "2023-08-28 00:55:59 +0000";
layers = (
{
hints = (
{
horizontal = 1;
place = (-93, 946);
place = (-93, 946);
type = Stem;
},
{
place = (25, 446);
place = (25, 446);
type = Stem;
}
);
layerId = m01;
shapes = (
{
closed = 1;
nodes = (
(25,-67,l),
(55,-93,l),
(471,380,l),
(55,853,l),
(25,827,l),
(418,380,l)
);
}
);
vertWidth = 1000;
width = 671;
}
);
note = cid01405;
unicode = (9002,12297);
},
{
glyphname = blacklenticularbracketleft;
lastChange = "2023-08-28 00:55:48 +0000";
layers = (
{
hints = (
{
horizontal = 1;
place = (-95, 17);
place = (-95, 17);
type = Stem;
},
{
horizontal = 1;
place = (838, 17);
place = (838, 17);
type = Stem;
},
{
place = (632, 80);
place = (632, 80);
type = Stem;
}
);
layerId = m01;
shapes = (
{
closed = 1;
nodes = (
(543,-78,l),
(385,-4,o),
(280,154,o),
(280,380,cs),
(280,606,o),
(385,764,o),
(543,838,c),
(543,855,l),
(200,855,l),
(200,-95,l),
(543,-95,l)
);
}
);
vertWidth = 1000;
width = 568;
}
);
note = cid01412;
unicode = 12304;
},
{
glyphname = blacklenticularbracketright;
lastChange = "2023-08-28 00:55:59 +0000";
layers = (
{
hints = (
{
horizontal = 1;
place = (-95, 17);
place = (-95, 17);
type = Stem;
},
{
horizontal = 1;
place = (838, 17);
place = (838, 17);
type = Stem;
},
{
place = (288, 80);
place = (288, 80);
type = Stem;
}
);
layerId = m01;
shapes = (
{
closed = 1;
nodes = (
(25,-95,l),
(368,-95,l),
(368,855,l),
(25,855,l),
(25,838,l),
(183,764,o),
(288,606,o),
(288,380,cs),
(288,154,o),
(183,-4,o),
(25,-78,c)
);
}
);
vertWidth = 1000;
width = 568;
}
);
note = cid01413;
unicode = 12305;
},
{
glyphname = braceleft.full;
lastChange = "2023-08-28 00:55:48 +0000";
layers = (
{
hints = (
{
horizontal = 1;
place = (-119, 36);
place = (-119, 36);
type = Stem;
},
{
horizontal = 1;
place = (844.5, 35.5);
place = (844.5, 35.5);
type = Stem;
},
{
place = (681, 143);
place = (681, 143);
type = Stem;
},
{
place = (729, 115);
place = (729, 115);
type = Stem;
}
);
layerId = m01;
shapes = (
{
closed = 1;
nodes = (
(605,846,l),
(605,880,l),
(564,880,ls),
(413,880,o),
(312,833,o),
(312,732,cs),
(312,645,o),
(360,579,o),
(360,504,cs),
(360,454,o),
(331,425,o),
(200,398,c),
(200,364,l),
(332,336,o),
(360,308,o),
(360,258,cs),
(360,182,o),
(312,117,o),
(312,30,cs),
(312,-71,o),
(413,-119,o),
(564,-119,cs),
(605,-119,l),
(605,-85,l),
(565,-81,ls),
(491,-74,o),
(455,-36,o),
(455,33,cs),
(455,95,o),
(475,162,o),
(475,230,cs),
(475,299,o),
(426,355,o),
(317,381,c),
(426,406,o),
(475,462,o),
(475,531,cs),
(475,600,o),
(455,664,o),
(455,730,cs),
(455,798,o),
(491,837,o),
(565,843,cs)
);
}
);
vertWidth = 1000;
width = 631;
}
);
note = cid60034;
unicode = 65371;
},
{
glyphname = braceright.full;
lastChange = "2023-08-28 00:55:59 +0000";
layers = (
{
hints = (
{
horizontal = 1;
place = (-119, 35.5);
place = (-119, 35.5);
type = Stem;
},
{
horizontal = 1;
place = (844, 36);
place = (844, 36);
type = Stem;
},
{
place = (176, 143);
place = (176, 143);
type = Stem;
},
{
place = (156, 115);
place = (156, 115);
type = Stem;
}
);
layerId = m01;
shapes = (
{
closed = 1;
nodes = (
(431,397,l),
(299,425,o),
(271,453,o),
(271,503,cs),
(271,579,o),
(319,644,o),
(319,731,cs),
(319,832,o),
(218,880,o),
(67,880,cs),
(26,880,l),
(26,846,l),
(66,842,ls),
(140,835,o),
(176,797,o),
(176,728,cs),
(176,666,o),
(156,599,o),
(156,531,cs),
(156,462,o),
(205,406,o),
(314,380,c),
(205,355,o),
(156,299,o),
(156,230,cs),
(156,161,o),
(176,97,o),
(176,31,cs),
(176,-37,o),
(140,-76,o),
(66,-82,cs),
(26,-85,l),
(26,-119,l),
(67,-119,ls),
(218,-119,o),
(319,-72,o),
(319,29,cs),
(319,116,o),
(271,182,o),
(271,257,cs),
(271,307,o),
(300,336,o),
(431,363,c)
);
}
);
vertWidth = 1000;
width = 631;
}
);
note = cid60036;
unicode = 65373;
},
{
glyphname = cornerbracketleft;
lastChange = "2023-08-28 00:55:48 +0000";
layers = (
{
hints = (
{
horizontal = 1;
place = (814, 41);
place = (814, 41);
type = Stem;
},
{
place = (645, 43);
place = (645, 43);
type = Stem;
}
);
layerId = m01;
shapes = (
{
closed = 1;
nodes = (
(200,220,l),
(243,220,l),
(243,814,l),
(530,814,l),
(530,855,l),
(200,855,l)
);
}
);
vertWidth = 1000;
width = 555;
}
);
note = cid01408;
unicode = 12300;
},
{
glyphname = cornerbracketright;
lastChange = "2023-08-28 00:55:59 +0000";
layers = (
{
hints = (
{
horizontal = 1;
place = (-95, 41);
place = (-95, 41);
type = Stem;
},
{
place = (312, 43);
place = (312, 43);
type = Stem;
}
);
layerId = m01;
shapes = (
{
closed = 1;
nodes = (
(355,540,l),
(312,540,l),
(312,-54,l),
(25,-54,l),
(25,-95,l),
(355,-95,l)
);
}
);
vertWidth = 1000;
width = 555;
}
);
note = cid01409;
unicode = 12301;
},
{
glyphname = dblanglebracketleft;
lastChange = "2023-08-28 00:55:48 +0000";
layers = (
{
hints = (
{
horizontal = 1;
place = (-98, 956);
place = (-98, 956);
type = Stem;
},
{
place = (529, 445);
place = (529, 445);
type = Stem;
}
);
layerId = m01;
shapes = (
{
closed = 1;
nodes = (
(240,380,l),
(503,840,l),
(474,858,l),
(200,380,l),
(474,-98,l),
(503,-80,l)
);
},
{
closed = 1;
nodes = (
(382,380,l),
(645,840,l),
(616,858,l),
(342,380,l),
(616,-98,l),
(645,-80,l)
);
}
);
vertWidth = 1000;
width = 671;
}
);
note = cid01406;
unicode = 12298;
},
{
glyphname = dblanglebracketright;
lastChange = "2023-08-28 00:55:59 +0000";
layers = (
{
hints = (
{
horizontal = 1;
place = (-98, 956);
place = (-98, 956);
type = Stem;
},
{
place = (26, 445);
place = (26, 445);
type = Stem;
}
);
layerId = m01;
shapes = (
{
closed = 1;
nodes = (
(197,-98,l),
(471,380,l),
(197,858,l),
(168,840,l),
(431,380,l),
(168,-80,l)
);
},
{
closed = 1;
nodes = (
(55,-98,l),
(329,380,l),
(55,858,l),
(26,840,l),
(289,380,l),
(26,-80,l)
);
}
);
vertWidth = 1000;
width = 671;
}
);
note = cid01407;
unicode = 12299;
},
{
glyphname = tortoiseshellbracketleft;
lastChange = "2023-08-28 00:55:48 +0000";
layers = (
{
hints = (
{
horizontal = 1;
place = (-95, 950);
place = (-95, 950);
type = Stem;
},
{
place = (725, 43);
place = (725, 43);
type = Stem;
}
);
layerId = m01;
shapes = (
{
closed = 1;
nodes = (
(432,-95,l),
(450,-59,l),
(243,39,l),
(243,721,l),
(450,819,l),
(432,855,l),
(200,746,l),
(200,14,l)
);
}
);
vertWidth = 1000;
width = 475;
}
);
note = cid01416;
unicode = 12308;
},
{
glyphname = tortoiseshellbracketright;
lastChange = "2023-08-28 00:55:59 +0000";
layers = (
{
hints = (
{
horizontal = 1;
place = (-95, 950);
place = (-95, 950);
type = Stem;
},
{
place = (232, 43);
place = (232, 43);
type = Stem;
}
);
layerId = m01;
shapes = (
{
closed = 1;
nodes = (
(43,-95,l),
(275,14,l),
(275,746,l),
(43,855,l),
(25,819,l),
(232,721,l),
(232,39,l),
(25,-59,l)
);
}
);
vertWidth = 1000;
width = 475;
}
);
note = cid01417;
unicode = 12309;
},
{
glyphname = whitecornerbracketleft;
lastChange = "2023-08-28 00:55:48 +0000";
layers = (
{
hints = (
{
horizontal = 1;
place = (217, 28);
place = (217, 28);
type = Stem;
},
{
horizontal = 1;
place = (709, 28);
place = (709, 28);
type = Stem;
},
{
horizontal = 1;
place = (827, 28);
place = (827, 28);
type = Stem;
},
{
place = (628, 28);
place = (628, 28);
type = Stem;
},
{
place = (750, 28);
place = (750, 28);
type = Stem;
},
{
place = (947, 28);
place = (947, 28);
type = Stem;
}
);
layerId = m01;
shapes = (
{
closed = 1;
nodes = (
(547,709,l),
(547,855,l),
(200,855,l),
(200,217,l),
(350,217,l),
(350,709,l)
);
},
{
closed = 1;
nodes = (
(519,827,l),
(519,737,l),
(322,737,l),
(322,245,l),
(228,245,l),
(228,827,l)
);
}
);
vertWidth = 1000;
width = 572;
}
);
note = cid01410;
unicode = 12302;
},
{
glyphname = whitecornerbracketright;
lastChange = "2023-08-28 00:55:59 +0000";
layers = (
{
hints = (
{
horizontal = 1;
place = (-95, 28);
place = (-95, 28);
type = Stem;
},
{
horizontal = 1;
place = (23, 28);
place = (23, 28);
type = Stem;
},
{
horizontal = 1;
place = (515, 28);
place = (515, 28);
type = Stem;
},
{
place = (25, 28);
place = (25, 28);
type = Stem;
},
{
place = (222, 28);
place = (222, 28);
type = Stem;
},
{
place = (344, 28);
place = (344, 28);
type = Stem;
}
);
layerId = m01;
shapes = (
{
closed = 1;
nodes = (
(25,51,l),
(25,-95,l),
(372,-95,l),
(372,543,l),
(222,543,l),
(222,51,l)
);
},
{
closed = 1;
nodes = (
(53,-67,l),
(53,23,l),
(250,23,l),
(250,515,l),
(344,515,l),
(344,-67,l)
);
}
);
vertWidth = 1000;
width = 572;
}
);
note = cid01411;
unicode = 12303;
},
{
glyphname = whitelenticularbracketleft;
lastChange = "2023-08-28 00:55:48 +0000";
layers = (
{
hints = (
{
horizontal = 1;
place = (-95, 28);
place = (-95, 28);
type = Stem;
},
{
horizontal = 1;
place = (827, 28);
place = (827, 28);
type = Stem;
},
{
place = (628, 28);
place = (628, 28);
type = Stem;
},
{
horizontal = 1;
place = (836, 19);
place = (836, 19);
type = Stem;
},
{
place = (684, 28);
place = (684, 28);
type = Stem;
}
);
layerId = m01;
shapes = (
{
closed = 1;
nodes = (
(547,-76,l),
(389,-4,o),
(284,154,o),
(284,380,cs),
(284,606,o),
(389,764,o),
(547,836,c),
(547,855,l),
(200,855,l),
(200,-95,l),
(547,-95,l)
);
},
{
closed = 1;
nodes = (
(228,-67,l),
(228,827,l),
(474,827,l),
(383,770,o),
(256,638,o),
(256,380,cs),
(256,122,o),
(383,-10,o),
(474,-67,c)
);
}
);
vertWidth = 1000;
width = 572;
}
);
note = cid01418;
unicode = 12310;
},
{
glyphname = whitelenticularbracketright;
lastChange = "2023-08-28 00:55:59 +0000";
layers = (
{
hints = (
{
horizontal = 1;
place = (-95, 28);
place = (-95, 28);
type = Stem;
},
{
horizontal = 1;
place = (827, 28);
place = (827, 28);
type = Stem;
},
{
place = (345, 28);
place = (345, 28);
type = Stem;
},
{
horizontal = 1;
place = (836, 19);
place = (836, 19);
type = Stem;
},
{
place = (289, 28);
place = (289, 28);
type = Stem;
}
);
layerId = m01;
shapes = (
{
closed = 1;
nodes = (
(373,-95,l),
(373,855,l),
(26,855,l),
(26,836,l),
(184,764,o),
(289,606,o),
(289,380,cs),
(289,154,o),
(184,-4,o),
(26,-76,c),
(26,-95,l)
);
},
{
closed = 1;
nodes = (
(317,638,o),
(190,770,o),
(99,827,c),
(345,827,l),
(345,-67,l),
(99,-67,l),
(190,-10,o),
(317,122,o),
(317,380,cs)
);
}
);
vertWidth = 1000;
width = 573;
}
);
note = cid01419;
unicode = 12311;
},
{
glyphname = anglebracketleft.vert;
lastChange = "2023-08-28 00:56:30 +0000";
layers = (
{
hints = (
{
horizontal = 1;
place = (-95, 446);
place = (-95, 446);
type = Stem;
},
{
place = (27, 946);
place = (27, 946);
type = Stem;
}
);
layerId = m01;
shapes = (
{
closed = 1;
nodes = (
(947,234,l),
(973,264,l),
(500,680,l),
(27,264,l),
(53,234,l),
(500,627,l)
);
}
);
vertWidth = 671;
width = 1000;
}
);
note = cid59901;
unicode = 65087;
},
{
glyphname = anglebracketright.vert;
lastChange = "2023-08-28 00:56:35 +0000";
layers = (
{
hints = (
{
horizontal = 1;
place = (409, 446);
place = (409, 446);
type = Stem;
},
{
place = (27, 946);
place = (27, 946);
type = Stem;
}
);
layerId = m01;
shapes = (
{
closed = 1;
nodes = (
(53,855,l),
(27,825,l),
(500,409,l),
(973,825,l),
(947,855,l),
(500,462,l)
);
}
);
vertWidth = 671;
width = 1000;
}
);
note = cid59902;
unicode = 65088;
},
{
glyphname = blacklenticularbracketleft.vert;
lastChange = "2023-08-28 00:56:41 +0000";
layers = (
{
hints = (
{
horizontal = 1;
place = (168, 80);
place = (168, 80);
type = Stem;
},
{
place = (25, 17);
place = (25, 17);
type = Stem;
},
{
place = (958, 17);
place = (958, 17);
type = Stem;
}
);
layerId = m01;
shapes = (
{
closed = 1;
nodes = (
(42,337,l),
(116,495,o),
(274,600,o),
(500,600,cs),
(726,600,o),
(884,495,o),
(958,337,c),
(975,337,l),
(975,680,l),
(25,680,l),
(25,337,l)
);
}
);
vertWidth = 568;
width = 1000;
}
);
note = cid59897;
unicode = 65083;
},
{
glyphname = blacklenticularbracketright.vert;
lastChange = "2023-08-28 00:56:47 +0000";
layers = (
{
hints = (
{
horizontal = 1;
place = (512, 80);
place = (512, 80);
type = Stem;
},
{
place = (25, 17);
place = (25, 17);
type = Stem;
},
{
place = (958, 17);
place = (958, 17);
type = Stem;
}
);
layerId = m01;
shapes = (
{
closed = 1;
nodes = (
(958,855,l),
(884,697,o),
(726,592,o),
(500,592,cs),
(274,592,o),
(116,697,o),
(42,855,c),
(25,855,l),
(25,512,l),
(975,512,l),
(975,855,l)
);
}
);
vertWidth = 568;
width = 1000;
}
);
note = cid59898;
unicode = 65084;
},
{
glyphname = bracketleft.full;
lastChange = "2023-08-28 00:55:48 +0000";
layers = (
{
hints = (
{
horizontal = 1;
place = (-95, 41);
place = (-95, 41);
type = Stem;
},
{
horizontal = 1;
place = (814, 41);
place = (814, 41);
type = Stem;
},
{
place = (725, 43);
place = (725, 43);
type = Stem;
}
);
layerId = m01;
shapes = (
{
closed = 1;
nodes = (
(200,-95,l),
(450,-95,l),
(450,-54,l),
(243,-54,l),
(243,814,l),
(450,814,l),
(450,855,l),
(200,855,l)
);
}
);
vertWidth = 1000;
width = 475;
}
);
note = cid60002;
unicode = 65339;
},
{
glyphname = bracketright.full;
lastChange = "2023-08-28 00:55:59 +0000";
layers = (
{
hints = (
{
horizontal = 1;
place = (-95, 41);
place = (-95, 41);
type = Stem;
},
{
horizontal = 1;
place = (814, 41);
place = (814, 41);
type = Stem;
},
{
place = (232, 43);
place = (232, 43);
type = Stem;
}
);
layerId = m01;
shapes = (
{
closed = 1;
nodes = (
(275,-95,l),
(275,855,l),
(25,855,l),
(25,814,l),
(232,814,l),
(232,-54,l),
(25,-54,l),
(25,-95,l)
);
}
);
vertWidth = 1000;
width = 475;
}
);
note = cid60004;
unicode = 65341;
},
{
glyphname = cornerbracketleft.vert;
lastChange = "2023-08-28 00:56:52 +0000";
layers = (
{
hints = (
{
horizontal = 1;
place = (194, 41);
place = (194, 41);
type = Stem;
},
{
place = (932, 43);
place = (932, 43);
type = Stem;
}
);
layerId = m01;
shapes = (
{
closed = 1;
nodes = (
(290,680,l),
(290,639,l),
(932,639,l),
(932,350,l),
(975,350,l),
(975,680,l)
);
}
);
vertWidth = 555;
width = 1000;
}
);
note = cid59903;
unicode = 65089;
},
{
glyphname = cornerbracketright.vert;
lastChange = "2023-08-28 00:56:57 +0000";
layers = (
{
hints = (
{
horizontal = 1;
place = (505, 41);
place = (505, 41);
type = Stem;
},
{
place = (25, 43);
place = (25, 43);
type = Stem;
}
);
layerId = m01;
shapes = (
{
closed = 1;
nodes = (
(710,505,l),
(710,546,l),
(68,546,l),
(68,835,l),
(25,835,l),
(25,505,l)
);
}
);
vertWidth = 575;
width = 1000;
}
);
note = cid59904;
unicode = 65090;
},
{
glyphname = dblanglebracketleft.vert;
lastChange = "2023-08-28 00:57:02 +0000";
layers = (
{
hints = (
{
horizontal = 1;
place = (-94, 445);
place = (-94, 445);
type = Stem;
},
{
place = (22, 956);
place = (22, 956);
type = Stem;
}
);
layerId = m01;
shapes = (
{
closed = 1;
nodes = (
(500,640,l),
(960,377,l),
(978,406,l),
(500,680,l),
(22,406,l),
(40,377,l)
);
},
{
closed = 1;
nodes = (
(500,498,l),
(960,235,l),
(978,264,l),
(500,538,l),
(22,264,l),
(40,235,l)
);
}
);
vertWidth = 671;
width = 1000;
}
);
note = cid59899;
unicode = 65085;
},
{
glyphname = dblanglebracketright.vert;
lastChange = "2023-08-28 00:57:08 +0000";
layers = (
{
hints = (
{
horizontal = 1;
place = (409, 445);
place = (409, 445);
type = Stem;
},
{
place = (22, 956);
place = (22, 956);
type = Stem;
}
);
layerId = m01;
shapes = (
{
closed = 1;
nodes = (
(22,683,l),
(500,409,l),
(978,683,l),
(960,712,l),
(500,449,l),
(40,712,l)
);
},
{
closed = 1;
nodes = (
(22,825,l),
(500,551,l),
(978,825,l),
(960,854,l),
(500,591,l),
(40,854,l)
);
}
);
vertWidth = 671;
width = 1000;
}
);
note = cid59900;
unicode = 65086;
},
{
glyphname = parenleft.full;
lastChange = "2023-08-28 00:55:48 +0000";
layers = (
{
hints = (
{
horizontal = 1;
place = (-95, 950);
place = (-95, 950);
type = Stem;
},
{
place = (637, 112);
place = (637, 112);
type = Stem;
}
);
layerId = m01;
shapes = (
{
closed = 1;
nodes = (
(200,136,o),
(342,-8,o),
(493,-95,c),
(506,-78,l),
(395,21,o),
(312,158,o),
(312,380,cs),
(312,602,o),
(395,739,o),
(506,838,c),
(493,855,l),
(342,768,o),
(200,624,o),
(200,380,cs)
);
}
);
vertWidth = 1000;
width = 563;
}
);
note = cid59951;
unicode = 65288;
},
{
glyphname = parenright.full;
lastChange = "2023-08-28 00:55:59 +0000";
layers = (
{
hints = (
{
horizontal = 1;
place = (-95, 950);
place = (-95, 950);
type = Stem;
},
{
place = (251, 112);
place = (251, 112);
type = Stem;
}
);
layerId = m01;
shapes = (
{
closed = 1;
nodes = (
(57,838,l),
(168,739,o),
(251,602,o),
(251,380,cs),
(251,158,o),
(168,21,o),
(57,-78,c),
(70,-95,l),
(221,-8,o),
(363,136,o),
(363,380,cs),
(363,624,o),
(221,768,o),
(70,855,c)
);
}
);
vertWidth = 1000;
width = 563;
}
);
note = cid59952;
unicode = 65289;
},
{
glyphname = tortoiseshellbracketleft.vert;
lastChange = "2023-08-28 00:57:13 +0000";
layers = (
{
hints = (
{
horizontal = 1;
place = (114, 41);
place = (114, 41);
type = Stem;
},
{
place = (25, 950);
place = (25, 950);
type = Stem;
}
);
layerId = m01;
shapes = (
{
closed = 1;
nodes = (
(134,680,l),
(25,448,l),
(62,430,l),
(161,639,l),
(839,639,l),
(938,430,l),
(975,448,l),
(866,680,l)
);
}
);
vertWidth = 475;
width = 1000;
}
);
note = cid59895;
unicode = 65081;
},
{
glyphname = tortoiseshellbracketright.vert;
lastChange = "2023-08-28 00:57:18 +0000";
layers = (
{
hints = (
{
horizontal = 1;
place = (605, 41);
place = (605, 41);
type = Stem;
},
{
place = (25, 950);
place = (25, 950);
type = Stem;
}
);
layerId = m01;
shapes = (
{
closed = 1;
nodes = (
(975,837,l),
(938,855,l),
(839,646,l),
(161,646,l),
(62,855,l),
(25,837,l),
(134,605,l),
(866,605,l)
);
}
);
vertWidth = 475;
width = 1000;
}
);
note = cid59896;
unicode = 65082;
},
{
glyphname = whitecornerbracketleft.vert;
lastChange = "2023-08-28 00:57:23 +0000";
layers = (
{
hints = (
{
horizontal = 1;
place = (-95, 28);
place = (-95, 28);
type = Stem;
},
{
horizontal = 1;
place = (97, 28);
place = (97, 28);
type = Stem;
},
{
horizontal = 1;
place = (215, 28);
place = (215, 28);
type = Stem;
},
{
place = (337, 28);
place = (337, 28);
type = Stem;
},
{
place = (825, 28);
place = (825, 28);
type = Stem;
},
{
place = (947, 28);
place = (947, 28);
type = Stem;
}
);
layerId = m01;
shapes = (
{
closed = 1;
nodes = (
(825,342,l),
(975,342,l),
(975,680,l),
(337,680,l),
(337,534,l),
(825,534,l)
);
},
{
closed = 1;
nodes = (
(947,370,l),
(853,370,l),
(853,562,l),
(365,562,l),
(365,652,l),
(947,652,l)
);
}
);
vertWidth = 563;
width = 1000;
}
);
note = cid59905;
unicode = 65091;
},
{
glyphname = whitecornerbracketright.vert;
lastChange = "2023-08-28 00:57:29 +0000";
layers = (
{
hints = (
{
horizontal = 1;
place = (517, 28);
place = (517, 28);
type = Stem;
},
{
horizontal = 1;
place = (635, 28);
place = (635, 28);
type = Stem;
},
{
horizontal = 1;
place = (827, 28);
place = (827, 28);
type = Stem;
},
{
place = (25, 28);
place = (25, 28);
type = Stem;
},
{
place = (147, 28);
place = (147, 28);
type = Stem;
},
{
place = (635, 28);
place = (635, 28);
type = Stem;
}
);
layerId = m01;
shapes = (
{
closed = 1;
nodes = (
(175,855,l),
(25,855,l),
(25,517,l),
(663,517,l),
(663,663,l),
(175,663,l)
);
},
{
closed = 1;
nodes = (
(53,827,l),
(147,827,l),
(147,635,l),
(635,635,l),
(635,545,l),
(53,545,l)
);
}
);
vertWidth = 563;
width = 1000;
}
);
note = cid59906;
unicode = 65092;
},
{
glyphname = whitelenticularbracketleft.vert;
lastChange = "2023-08-28 00:57:35 +0000";
layers = (
{
hints = (
{
horizontal = 1;
place = (224, 28);
place = (224, 28);
type = Stem;
},
{
place = (25, 28);
place = (25, 28);
type = Stem;
},
{
place = (947, 28);
place = (947, 28);
type = Stem;
},
{
horizontal = 1;
place = (168, 28);
place = (168, 28);
type = Stem;
}
);
layerId = m01;
shapes = (
{
closed = 1;
nodes = (
(44,333,l),
(116,491,o),
(274,596,o),
(500,596,cs),
(726,596,o),
(884,491,o),
(956,333,c),
(975,333,l),
(975,680,l),
(25,680,l),
(25,333,l)
);
},
{
closed = 1;
nodes = (
(53,652,l),
(947,652,l),
(947,406,l),
(890,497,o),
(758,624,o),
(500,624,cs),
(242,624,o),
(110,497,o),
(53,406,c)
);
}
);
vertWidth = 572;
width = 1000;
}
);
note = cid59883;
unicode = 65047;
},
{
glyphname = whitelenticularbracketright.vert;
lastChange = "2023-08-28 00:57:40 +0000";
layers = (
{
hints = (
{
horizontal = 1;
place = (512, 28);
place = (512, 28);
type = Stem;
},
{
place = (25, 28);
place = (25, 28);
type = Stem;
},
{
place = (947, 28);
place = (947, 28);
type = Stem;
},
{
horizontal = 1;
place = (568, 28);
place = (568, 28);
type = Stem;
}
);
layerId = m01;
shapes = (
{
closed = 1;
nodes = (
(25,512,l),
(975,512,l),
(975,859,l),
(956,859,l),
(884,701,o),
(726,596,o),
(500,596,cs),
(274,596,o),
(116,701,o),
(44,859,c),
(25,859,l)
);
},
{
closed = 1;
nodes = (
(758,568,o),
(890,695,o),
(947,786,c),
(947,540,l),
(53,540,l),
(53,786,l),
(110,695,o),
(242,568,o),
(500,568,cs)
);
}
);
vertWidth = 568;
width = 1000;
}
);
note = cid59884;
unicode = 65048;
},
{
glyphname = braceleft.full.vert;
lastChange = "2023-08-28 00:57:46 +0000";
layers = (
{
hints = (
{
horizontal = 1;
place = (25, 143);
place = (25, 143);
type = Stem;
},
{
place = (0, 36.5);
place = (0, 36.5);
type = Stem;
},
{
place = (964, 36);
place = (964, 36);
type = Stem;
},
{
horizontal = 1;
place = (1, 115);
place = (1, 115);
type = Stem;
}
);
layerId = m01;
shapes = (
{
closed = 1;
nodes = (
(483,680,l),
(456,550,o),
(427,521,o),
(377,521,cs),
(302,521,o),
(236,573,o),
(149,573,cs),
(49,573,o),
(0,472,o),
(0,322,cs),
(0,284,l),
(35,284,l),
(38,321,ls),
(44,394,o),
(83,430,o),
(151,430,cs),
(217,430,o),
(281,406,o),
(350,406,cs),
(419,406,o),
(475,455,o),
(500,564,c),
(526,455,o),
(582,406,o),
(651,406,cs),
(719,406,o),
(786,430,o),
(848,430,cs),
(917,430,o),
(955,394,o),
(962,321,cs),
(966,284,l),
(1000,284,l),
(1000,322,ls),
(1000,472,o),
(952,573,o),
(851,573,cs),
(764,573,o),
(699,521,o),
(623,521,cs),
(573,521,o),
(544,549,o),
(517,680,c)
);
}
);
vertWidth = 595;
width = 1000;
}
);
note = cid59893;
unicode = 65079;
},
{
glyphname = braceright.full.vert;
lastChange = "2023-08-28 00:57:52 +0000";
layers = (
{
hints = (
{
horizontal = 1;
place = (585, 144);
place = (585, 144);
type = Stem;
},
{
place = (0, 36.5);
place = (0, 36.5);
type = Stem;
},
{
place = (964, 36);
place = (964, 36);
type = Stem;
},
{
horizontal = 1;
place = (638, 115);
place = (638, 115);
type = Stem;
}
);
layerId = m01;
shapes = (
{
closed = 1;
nodes = (
(966,874,l),
(962,837,ls),
(955,764,o),
(917,729,o),
(848,729,cs),
(786,729,o),
(719,753,o),
(651,753,cs),
(582,753,o),
(526,704,o),
(500,595,c),
(475,704,o),
(419,753,o),
(350,753,cs),
(281,753,o),
(217,729,o),
(151,729,cs),
(83,729,o),
(44,764,o),
(38,837,cs),
(35,874,l),
(0,874,l),
(0,837,ls),
(0,687,o),
(49,585,o),
(149,585,cs),
(236,585,o),
(302,638,o),
(377,638,cs),
(427,638,o),
(456,609,o),
(483,479,c),
(517,479,l),
(544,610,o),
(573,638,o),
(623,638,cs),
(699,638,o),
(764,585,o),
(851,585,cs),
(952,585,o),
(1000,687,o),
(1000,837,cs),
(1000,874,l)
);
}
);
vertWidth = 601;
width = 1000;
}
);
note = cid59894;
unicode = 65080;
},
{
glyphname = bracketleft.full.vert;
lastChange = "2023-08-28 00:57:58 +0000";
layers = (
{
hints = (
{
horizontal = 1;
place = (114, 41);
place = (114, 41);
type = Stem;
},
{
place = (25, 43);
place = (25, 43);
type = Stem;
},
{
place = (932, 43);
place = (932, 43);
type = Stem;
}
);
layerId = m01;
shapes = (
{
closed = 1;
nodes = (
(25,680,l),
(25,430,l),
(68,430,l),
(68,639,l),
(932,639,l),
(932,430,l),
(975,430,l),
(975,680,l)
);
}
);
vertWidth = 475;
width = 1000;
}
);
note = cid59909;
unicode = 65095;
},
{
glyphname = bracketright.full.vert;
lastChange = "2023-08-28 00:58:04 +0000";
layers = (
{
hints = (
{
horizontal = 1;
place = (605, 41);
place = (605, 41);
type = Stem;
},
{
place = (25, 43);
place = (25, 43);
type = Stem;
},
{
place = (932, 43);
place = (932, 43);
type = Stem;
}
);
layerId = m01;
shapes = (
{
closed = 1;
nodes = (
(975,605,l),
(975,855,l),
(932,855,l),
(932,646,l),
(68,646,l),
(68,855,l),
(25,855,l),
(25,605,l)
);
}
);
vertWidth = 475;
width = 1000;
}
);
note = cid59910;
unicode = 65096;
},
{
glyphname = parenleft.full.vert;
lastChange = "2023-08-28 00:58:09 +0000";
layers = (
{
hints = (
{
horizontal = 1;
place = (132, 112);
place = (132, 112);
type = Stem;
},
{
place = (25, 950);
place = (25, 950);
type = Stem;
}
);
layerId = m01;
shapes = (
{
closed = 1;
nodes = (
(256,680,o),
(112,538,o),
(25,387,c),
(42,374,l),
(141,485,o),
(278,568,o),
(500,568,cs),
(722,568,o),
(859,485,o),
(958,374,c),
(975,387,l),
(888,538,o),
(744,680,o),
(500,680,cs)
);
}
);
vertWidth = 564;
width = 1000;
}
);
note = cid59891;
unicode = 65077;
},
